<svg width="243" height="47" viewBox="0 0 243 47" fill="none" xmlns="http://www.w3.org/2000/svg">
<g filter="url(#filter0_d_4_82)">
<path fill-rule="evenodd" clip-rule="evenodd" d="M47.4715 25.3258C46.7172 27.4069 44.3419 30.7488 42.4523 33.0363C40.4063 35.5122 38.1274 37.5109 35.3639 39.1658C32.6695 40.7798 28.7379 42.3702 25.5 42.4689C22.2627 42.3702 18.3311 40.7798 15.6367 39.1658C12.8732 37.5109 10.5942 35.5122 8.54822 33.0363C6.65865 30.7488 4.28336 27.4069 3.52901 25.3258C3.22636 24.4908 3.19462 23.6131 3.50464 22.6934C4.04192 21.2067 5.24175 19.8126 6.53736 18.9186C7.00891 18.5934 7.48839 18.3679 7.85905 18.4263C8.92852 18.5956 9.53099 20.0716 9.95039 20.9005C9.66531 21.1815 9.34736 21.4058 9.05887 21.7165C7.23108 23.6849 7.50539 26.1749 8.63607 28.5684C10.1635 31.7386 13.1843 34.897 15.8322 37.1638C13.9749 32.7789 14.6862 27.1591 19.2112 24.6102C18.8122 30.0629 31.3574 30.9905 31.7893 24.6102C36.3143 27.1591 37.0256 32.7789 35.1683 37.1638C37.8162 34.897 40.8365 31.7386 42.3645 28.5684C43.4951 26.1749 43.7695 23.6849 41.9417 21.7165C41.6532 21.4058 41.3352 21.1815 41.0501 20.9005C41.4696 20.0716 42.072 18.5956 43.1415 18.4263C43.5122 18.3679 43.9916 18.5934 44.4626 18.9186C45.7588 19.8126 46.958 21.2067 47.4959 22.6934C47.8059 23.6131 47.7742 24.4908 47.4715 25.3258M10.1034 5.41959C11.1502 4.78532 12.7445 5.83009 13.4167 6.6012C14.455 7.79009 14.7418 9.27117 13.8928 10.6356C13.1361 11.8312 11.9034 12.9444 10.7637 13.789C10.5132 13.1087 10.2627 12.4902 10.0127 11.9339C9.72595 11.2536 9.47658 10.5139 9.31902 9.75739C9.08155 8.61111 8.93589 6.12676 10.1034 5.41959M16.157 12.4818C17.2763 11.8217 19.2418 11.6243 20.3136 12.5367C21.251 13.3347 21.3978 14.8562 20.9738 16.0883C20.8883 16.3373 20.6553 16.8768 20.4626 17.0663C20.4626 15.2241 19.1965 13.7099 17.2638 13.7823C16.4369 13.8137 15.7778 14.2113 15.2694 14.8405C14.3932 15.9531 14.3932 17.128 15.1436 18.3029C14.7412 18.2653 14.455 18.1145 14.2561 17.8952C13.8599 17.4594 13.7658 16.8426 13.7964 16.2767C13.8803 14.7491 14.8228 13.2686 16.157 12.4818M19.6981 7.4867C19.8358 7.19677 20.2631 7.05433 20.5476 6.95731C21.6336 6.58605 23.5067 6.33706 25.407 6.27873L25.5 6.27649L25.5935 6.27873C27.4933 6.33706 29.367 6.58605 30.4529 6.9573C30.7374 7.05432 31.1647 7.19677 31.3019 7.4867C31.3665 7.62298 31.3671 7.76766 31.3042 7.9045C31.167 8.20172 30.1287 9.03171 29.8057 9.2936C28.0561 10.7107 26.9367 11.8408 26.349 14.1227C26.0447 15.3071 26.0894 16.478 26.472 17.6462C27.0784 19.4957 28.4149 20.5971 29.0598 22.2694C29.3857 23.1151 29.5019 24.041 29.1505 24.7745C28.5701 25.9881 26.8347 26.1956 25.6326 26.2192L25.5 26.2209L25.368 26.2192C24.1659 26.1956 22.4304 25.9881 21.8495 24.7745C21.4981 24.041 21.6149 23.1151 21.9408 22.2694C22.5857 20.5971 23.9222 19.4957 24.5286 17.6462C24.9112 16.478 24.9559 15.3071 24.6516 14.1227C24.0638 11.8408 22.9445 10.7107 21.1949 9.2936C20.8718 9.03171 19.8335 8.20172 19.6964 7.9045C19.6335 7.76766 19.6335 7.62298 19.6981 7.4867M34.8436 12.4818C36.1777 13.2686 37.1202 14.7491 37.2035 16.2767C37.2347 16.8426 37.1406 17.4594 36.7445 17.8952C36.5455 18.1145 36.2593 18.2653 35.8564 18.3029C36.6073 17.128 36.6073 15.9531 35.7311 14.8405C35.2222 14.2113 34.5636 13.8137 33.7367 13.7823C31.804 13.7099 30.5373 15.2241 30.5373 17.0663C30.3452 16.8768 30.1117 16.3373 30.0267 16.0883C29.6027 14.8562 29.7495 13.3347 30.687 12.5367C31.7581 11.6243 33.7242 11.8217 34.8436 12.4818M37.5833 6.6012C38.256 5.83009 39.8503 4.78532 40.8971 5.41959C42.0641 6.12676 41.919 8.61111 41.681 9.75739C41.524 10.5139 41.2746 11.2536 40.9878 11.9339C40.7373 12.4902 40.4874 13.1087 40.2369 13.789C39.0965 12.9444 37.8644 11.8312 37.1078 10.6356C36.2582 9.27117 36.5455 7.79009 37.5833 6.6012M49.5255 21.6537C48.3177 18.9147 46.809 18.0169 44.9528 16.6732C44.2512 16.1645 43.5722 15.7131 43.2225 15.1276C43.014 14.7794 42.9307 14.4115 42.9261 14.0363C42.9199 13.5759 43.0327 13.1037 43.1783 12.645C43.8318 10.5879 44.1974 9.1635 44.2036 6.99263C44.2115 4.28565 43.1126 0.0016824 39.6984 0C39.2031 0 38.7429 0.0796338 38.3144 0.232172C37.5011 0.521545 36.8703 1.03019 36.3285 1.63361C35.6574 2.38172 33.667 5.35902 32.9784 5.64839C32.8514 5.70223 32.7007 5.68541 32.5442 5.6383C29.9275 4.85654 28.3451 4.51557 25.5 4.45837C22.6554 4.51557 21.073 4.85654 18.4563 5.6383C18.2999 5.68541 18.1491 5.70223 18.0216 5.64839C17.333 5.35902 15.3425 2.38172 14.6721 1.63361C14.1302 1.03019 13.4994 0.521545 12.6861 0.232172C12.2571 0.0796338 11.7975 0 11.3021 0C7.88795 0.0016824 6.789 4.28565 6.79694 6.99263C6.80261 9.1635 7.16873 10.5879 7.82221 12.645C7.96786 13.1037 8.08065 13.5759 8.07441 14.0363C8.06988 14.4115 7.98657 14.7794 7.778 15.1276C7.42831 15.7131 6.74933 16.1645 6.04712 16.6732C4.19155 18.0169 2.68284 18.9147 1.47507 21.6537C1.10951 22.482 0.995595 23.3882 1.00013 24.23C1.0092 25.6987 1.55159 26.9471 2.31161 28.4691C4.02662 31.9074 7.46402 35.8117 9.8206 37.8468C14.3575 41.7651 20.0302 44.5518 24.9593 44.8428C25.1395 44.8535 25.3198 44.8608 25.5 44.8641C25.6808 44.8607 25.861 44.8535 26.0407 44.8428C30.9698 44.5518 36.643 41.7651 41.1799 37.8468C43.536 35.8117 46.9739 31.9074 48.6889 28.4691C49.4484 26.9471 49.9913 25.6987 49.9998 24.23C50.0049 23.3882 49.891 22.482 49.5255 21.6537" fill="#4C4C4E"/>
<path fill-rule="evenodd" clip-rule="evenodd" d="M28.2086 37.3914C28.1185 37.5715 28.0057 37.7044 27.8759 37.8076C27.6373 37.9965 27.3381 38.0874 27.0031 38.1911C26.5888 38.319 26.1456 38.4228 25.9694 38.4228V33.103C27.0332 33.8449 28.1593 33.9689 29.4113 33.9066C29.4113 34.1814 28.6002 36.6119 28.2086 37.3914V37.3914ZM25.0308 38.4228C24.8545 38.4228 24.4113 38.319 23.9965 38.1911C23.6621 38.0874 23.3628 37.9965 23.1242 37.8076C22.9944 37.7044 22.8817 37.5715 22.7915 37.3914C22.3999 36.6119 21.5889 34.1814 21.5889 33.9066C22.8403 33.9689 23.967 33.8449 25.0308 33.103V38.4228ZM29.8018 32.591C29.3308 32.7351 28.8304 32.8304 28.2132 32.7985C27.4106 32.7564 26.6432 32.4469 26.2119 31.6057C26.1382 31.4615 25.9858 31.4598 25.5823 31.4598L25.5545 31.4609L25.5273 31.4598L25.5001 31.4609L25.4729 31.4598C25.0688 31.4598 24.9169 31.4615 24.8426 31.6057C24.4119 32.4469 23.6445 32.7564 22.8414 32.7985C22.2242 32.8304 21.7238 32.7351 21.2528 32.591C19.4363 32.033 19.3507 31.7902 17.3183 31.8137C19.1994 36.0904 22.1398 39.2791 25.4774 39.2533L25.5001 39.2527L25.5222 39.2533H25.5273H25.5323L25.5545 39.2527L25.5771 39.2533C28.9148 39.2791 31.8551 36.0904 33.7362 31.8137C31.7038 31.7902 31.6182 32.033 29.8017 32.591H29.8018Z" fill="#4C4C4E"/>
</g>
<path d="M64.2109 32V16H70.8203C72.0182 16 73.0521 16.2161 73.9219 16.6484C74.7969 17.0755 75.4714 17.6901 75.9453 18.4922C76.4193 19.2891 76.6562 20.2344 76.6562 21.3281C76.6562 22.4375 76.4141 23.3802 75.9297 24.1562C75.4453 24.9271 74.7578 25.5156 73.8672 25.9219C72.9766 26.3229 71.9219 26.5234 70.7031 26.5234H66.5234V23.4766H69.9844C70.5677 23.4766 71.0547 23.401 71.4453 23.25C71.8411 23.0937 72.1406 22.8594 72.3438 22.5469C72.5469 22.2292 72.6484 21.8229 72.6484 21.3281C72.6484 20.8333 72.5469 20.4245 72.3438 20.1016C72.1406 19.7734 71.8411 19.5286 71.4453 19.3672C71.0495 19.2005 70.5625 19.1172 69.9844 19.1172H68.0781V32H64.2109ZM73.2188 24.6875L77.2031 32H72.9844L69.0781 24.6875H73.2188ZM78.7773 32V16H89.9336V19.1406H82.6445V22.4219H89.3633V25.5703H82.6445V28.8594H89.9336V32H78.7773ZM95.8164 32H91.6602L97.0586 16H102.207L107.605 32H103.449L99.6914 20.0312H99.5664L95.8164 32ZM95.2617 25.7031H103.949V28.6406H95.2617V25.7031ZM115.242 32H109.328V16H115.234C116.865 16 118.268 16.3203 119.445 16.9609C120.628 17.5964 121.539 18.513 122.18 19.7109C122.82 20.9036 123.141 22.3307 123.141 23.9922C123.141 25.6589 122.82 27.0911 122.18 28.2891C121.544 29.487 120.635 30.4062 119.453 31.0469C118.271 31.6823 116.867 32 115.242 32ZM113.195 28.7031H115.094C115.99 28.7031 116.747 28.5521 117.367 28.25C117.992 27.9427 118.464 27.4453 118.781 26.7578C119.104 26.0651 119.266 25.1432 119.266 23.9922C119.266 22.8411 119.104 21.9245 118.781 21.2422C118.458 20.5547 117.982 20.0599 117.352 19.7578C116.727 19.4505 115.956 19.2969 115.039 19.2969H113.195V28.7031Z" fill="#E14449"/>
<path d="M125.398 32V16H129.266V22.4219H135.57V16H139.43V32H135.57V25.5703H129.266V32H125.398ZM145.316 32H141.16L146.559 16H151.707L157.105 32H152.949L149.191 20.0312H149.066L145.316 32ZM144.762 25.7031H153.449V28.6406H144.762V25.7031ZM158.828 16H163.617L167.68 25.9062H167.867L171.93 16H176.719V32H172.953V22.1719H172.82L168.977 31.8984H166.57L162.727 22.1172H162.594V32H158.828V16ZM187.779 20.7969C187.727 20.224 187.495 19.7786 187.084 19.4609C186.678 19.138 186.097 18.9766 185.342 18.9766C184.842 18.9766 184.425 19.0417 184.092 19.1719C183.758 19.3021 183.508 19.4818 183.342 19.7109C183.175 19.9349 183.089 20.1927 183.084 20.4844C183.074 20.724 183.12 20.9349 183.225 21.1172C183.334 21.2995 183.49 21.4609 183.693 21.6016C183.902 21.737 184.152 21.8568 184.443 21.9609C184.735 22.0651 185.063 22.1562 185.428 22.2344L186.803 22.5469C187.594 22.7188 188.292 22.9479 188.896 23.2344C189.506 23.5208 190.016 23.862 190.428 24.2578C190.844 24.6536 191.16 25.1094 191.373 25.625C191.587 26.1406 191.696 26.7187 191.701 27.3594C191.696 28.3698 191.441 29.237 190.936 29.9609C190.43 30.6849 189.704 31.2396 188.756 31.625C187.813 32.0104 186.675 32.2031 185.342 32.2031C184.003 32.2031 182.837 32.0026 181.842 31.6016C180.847 31.2005 180.074 30.5911 179.521 29.7734C178.969 28.9557 178.686 27.9219 178.67 26.6719H182.373C182.404 27.1875 182.542 27.6172 182.787 27.9609C183.032 28.3047 183.368 28.5651 183.795 28.7422C184.227 28.9193 184.727 29.0078 185.295 29.0078C185.816 29.0078 186.258 28.9375 186.623 28.7969C186.993 28.6563 187.277 28.4609 187.475 28.2109C187.673 27.9609 187.774 27.6745 187.779 27.3516C187.774 27.0495 187.68 26.7917 187.498 26.5781C187.316 26.3594 187.035 26.1719 186.654 26.0156C186.279 25.8542 185.8 25.7057 185.217 25.5703L183.545 25.1797C182.16 24.862 181.068 24.349 180.271 23.6406C179.475 22.9271 179.079 21.9635 179.084 20.75C179.079 19.7604 179.344 18.8932 179.881 18.1484C180.417 17.4036 181.16 16.8229 182.107 16.4063C183.055 15.9896 184.136 15.7812 185.35 15.7812C186.589 15.7812 187.665 15.9922 188.576 16.4141C189.493 16.8307 190.204 17.4167 190.709 18.1719C191.214 18.9271 191.472 19.8021 191.482 20.7969H187.779ZM193.131 19.1406V16H206.654V19.1406H201.803V32H197.99V19.1406H193.131ZM208.543 32V16H219.699V19.1406H212.41V22.4219H219.129V25.5703H212.41V28.8594H219.699V32H208.543ZM222.121 32V16H228.73C229.928 16 230.962 16.2161 231.832 16.6484C232.707 17.0755 233.382 17.6901 233.855 18.4922C234.329 19.2891 234.566 20.2344 234.566 21.3281C234.566 22.4375 234.324 23.3802 233.84 24.1562C233.355 24.9271 232.668 25.5156 231.777 25.9219C230.887 26.3229 229.832 26.5234 228.613 26.5234H224.434V23.4766H227.895C228.478 23.4766 228.965 23.401 229.355 23.25C229.751 23.0937 230.051 22.8594 230.254 22.5469C230.457 22.2292 230.559 21.8229 230.559 21.3281C230.559 20.8333 230.457 20.4245 230.254 20.1016C230.051 19.7734 229.751 19.5286 229.355 19.3672C228.96 19.2005 228.473 19.1172 227.895 19.1172H225.988V32H222.121ZM231.129 24.6875L235.113 32H230.895L226.988 24.6875H231.129Z" fill="#4C4C4E"/>
<defs>
<filter id="filter0_d_4_82" x="0" y="0" width="51" height="46.8641" filterUnits="userSpaceOnUse" color-interpolation-filters="sRGB">
<feFlood flood-opacity="0" result="BackgroundImageFix"/>
<feColorMatrix in="SourceAlpha" type="matrix" values="0 0 0 0 0 0 0 0 0 0 0 0 0 0 0 0 0 0 127 0" result="hardAlpha"/>
<feOffset dy="1"/>
<feGaussianBlur stdDeviation="0.5"/>
<feComposite in2="hardAlpha" operator="out"/>
<feColorMatrix type="matrix" values="0 0 0 0 0 0 0 0 0 0 0 0 0 0 0 0 0 0 0.26 0"/>
<feBlend mode="normal" in2="BackgroundImageFix" result="effect1_dropShadow_4_82"/>
<feBlend mode="normal" in="SourceGraphic" in2="effect1_dropShadow_4_82" result="shape"/>
</filter>
</defs>
</svg>
